<svg xmlns="http://www.w3.org/2000/svg" width="17.283" height="17.283" viewBox="0 0 17.283 17.283">
    <path id="Icon_awesome-phone-alt" data-name="Icon awesome-phone-alt"
          d="M16.79,12.213l-3.781-1.62a.81.81,0,0,0-.945.233L10.39,12.871A12.512,12.512,0,0,1,4.408,6.89L6.454,5.216a.808.808,0,0,0,.233-.945L5.067.49A.816.816,0,0,0,4.138.021L.628.831A.81.81,0,0,0,0,1.62,15.661,15.661,0,0,0,15.662,17.283a.81.81,0,0,0,.79-.628l.81-3.511a.82.82,0,0,0-.473-.932Z"
          transform="translate(0 0)" fill="#fff"/>
</svg>
